<mxfile host="app.diagrams.net" modified="2024-07-02T01:36:45.890Z" agent="Mozilla/5.0 (Macintosh; Intel Mac OS X 10_15_7) AppleWebKit/605.1.15 (KHTML, like Gecko) Version/17.5 Safari/605.1.15" etag="lqHgblSK4JirHHOXHGwu" version="23.1.1" type="github">
  <diagram name="Strona-1" id="LoIhmsM3k1W91ekIoNwY">
    <mxGraphModel dx="2467" dy="1233" grid="1" gridSize="10" guides="1" tooltips="1" connect="1" arrows="1" fold="1" page="1" pageScale="1" pageWidth="827" pageHeight="1169" math="0" shadow="0">
      <root>
        <mxCell id="0" />
        <mxCell id="1" parent="0" />
        <mxCell id="0YZWf_vBpHwigLN9SsZy-22" value="" style="edgeStyle=orthogonalEdgeStyle;rounded=0;orthogonalLoop=1;jettySize=auto;html=1;" parent="1" source="0YZWf_vBpHwigLN9SsZy-18" target="0YZWf_vBpHwigLN9SsZy-21" edge="1">
          <mxGeometry relative="1" as="geometry" />
        </mxCell>
        <mxCell id="0YZWf_vBpHwigLN9SsZy-18" value="Uruchomienie App.py" style="rounded=0;whiteSpace=wrap;html=1;" parent="1" vertex="1">
          <mxGeometry x="38" y="100" width="120" height="60" as="geometry" />
        </mxCell>
        <mxCell id="0YZWf_vBpHwigLN9SsZy-24" value="NIE" style="edgeStyle=orthogonalEdgeStyle;rounded=0;orthogonalLoop=1;jettySize=auto;html=1;" parent="1" source="0YZWf_vBpHwigLN9SsZy-21" target="0YZWf_vBpHwigLN9SsZy-23" edge="1">
          <mxGeometry relative="1" as="geometry" />
        </mxCell>
        <mxCell id="0YZWf_vBpHwigLN9SsZy-26" value="TAK" style="edgeStyle=orthogonalEdgeStyle;rounded=0;orthogonalLoop=1;jettySize=auto;html=1;" parent="1" source="0YZWf_vBpHwigLN9SsZy-21" target="0YZWf_vBpHwigLN9SsZy-25" edge="1">
          <mxGeometry relative="1" as="geometry" />
        </mxCell>
        <mxCell id="0YZWf_vBpHwigLN9SsZy-21" value="Czy wyświetla się monit o instalacji bibliotek" style="rhombus;whiteSpace=wrap;html=1;rounded=0;" parent="1" vertex="1">
          <mxGeometry x="20" y="200" width="156" height="80" as="geometry" />
        </mxCell>
        <mxCell id="0YZWf_vBpHwigLN9SsZy-23" value="Zgłoś błąd, opisz go w rejestrze" style="whiteSpace=wrap;html=1;rounded=0;" parent="1" vertex="1">
          <mxGeometry x="274" y="210" width="120" height="60" as="geometry" />
        </mxCell>
        <mxCell id="0YZWf_vBpHwigLN9SsZy-28" value="NIE" style="edgeStyle=orthogonalEdgeStyle;rounded=0;orthogonalLoop=1;jettySize=auto;html=1;" parent="1" source="0YZWf_vBpHwigLN9SsZy-25" edge="1">
          <mxGeometry relative="1" as="geometry">
            <mxPoint x="274" y="360" as="targetPoint" />
          </mxGeometry>
        </mxCell>
        <mxCell id="0YZWf_vBpHwigLN9SsZy-32" value="TAK" style="edgeStyle=orthogonalEdgeStyle;rounded=0;orthogonalLoop=1;jettySize=auto;html=1;" parent="1" source="0YZWf_vBpHwigLN9SsZy-25" target="0YZWf_vBpHwigLN9SsZy-31" edge="1">
          <mxGeometry x="0.1667" relative="1" as="geometry">
            <mxPoint as="offset" />
          </mxGeometry>
        </mxCell>
        <mxCell id="0YZWf_vBpHwigLN9SsZy-25" value="Czy pojawia się IP lokalnego serwera" style="rhombus;whiteSpace=wrap;html=1;rounded=0;" parent="1" vertex="1">
          <mxGeometry x="20" y="320" width="156" height="80" as="geometry" />
        </mxCell>
        <mxCell id="0YZWf_vBpHwigLN9SsZy-30" value="Zgłoś błąd, opisz go w rejestrze" style="whiteSpace=wrap;html=1;rounded=0;" parent="1" vertex="1">
          <mxGeometry x="274" y="330" width="120" height="60" as="geometry" />
        </mxCell>
        <mxCell id="0YZWf_vBpHwigLN9SsZy-35" value="NIE" style="edgeStyle=orthogonalEdgeStyle;rounded=0;orthogonalLoop=1;jettySize=auto;html=1;" parent="1" source="0YZWf_vBpHwigLN9SsZy-31" target="0YZWf_vBpHwigLN9SsZy-33" edge="1">
          <mxGeometry relative="1" as="geometry" />
        </mxCell>
        <mxCell id="0YZWf_vBpHwigLN9SsZy-37" value="" style="edgeStyle=orthogonalEdgeStyle;rounded=0;orthogonalLoop=1;jettySize=auto;html=1;" parent="1" source="0YZWf_vBpHwigLN9SsZy-31" target="0YZWf_vBpHwigLN9SsZy-36" edge="1">
          <mxGeometry relative="1" as="geometry" />
        </mxCell>
        <mxCell id="bgFscFfWbslKTT8saybT-1" value="TAK" style="edgeLabel;html=1;align=center;verticalAlign=middle;resizable=0;points=[];" vertex="1" connectable="0" parent="0YZWf_vBpHwigLN9SsZy-37">
          <mxGeometry x="-0.2" y="1" relative="1" as="geometry">
            <mxPoint as="offset" />
          </mxGeometry>
        </mxCell>
        <mxCell id="0YZWf_vBpHwigLN9SsZy-31" value="Czy po wejściu w link (IP serwera lokalnego) pojawia się aplikacja webowa" style="rhombus;whiteSpace=wrap;html=1;rounded=0;" parent="1" vertex="1">
          <mxGeometry x="20" y="440" width="156" height="80" as="geometry" />
        </mxCell>
        <mxCell id="0YZWf_vBpHwigLN9SsZy-33" value="Zgłoś błąd, opisz go w rejestrze" style="whiteSpace=wrap;html=1;rounded=0;" parent="1" vertex="1">
          <mxGeometry x="274" y="450" width="120" height="60" as="geometry" />
        </mxCell>
        <mxCell id="bgFscFfWbslKTT8saybT-3" value="" style="edgeStyle=orthogonalEdgeStyle;rounded=0;orthogonalLoop=1;jettySize=auto;html=1;" edge="1" parent="1" source="0YZWf_vBpHwigLN9SsZy-36" target="0YZWf_vBpHwigLN9SsZy-54">
          <mxGeometry relative="1" as="geometry" />
        </mxCell>
        <mxCell id="bgFscFfWbslKTT8saybT-10" value="TAK" style="edgeLabel;html=1;align=center;verticalAlign=middle;resizable=0;points=[];" vertex="1" connectable="0" parent="bgFscFfWbslKTT8saybT-3">
          <mxGeometry x="-0.05" y="1" relative="1" as="geometry">
            <mxPoint as="offset" />
          </mxGeometry>
        </mxCell>
        <mxCell id="0YZWf_vBpHwigLN9SsZy-36" value="Czy po nie dołączeniu pliku i zatwierdzeniu aplikacja zgłosiła błąd krytyczny" style="rhombus;whiteSpace=wrap;html=1;rounded=0;" parent="1" vertex="1">
          <mxGeometry x="20" y="560" width="156" height="80" as="geometry" />
        </mxCell>
        <mxCell id="0YZWf_vBpHwigLN9SsZy-49" value="NIE" style="edgeStyle=orthogonalEdgeStyle;rounded=0;orthogonalLoop=1;jettySize=auto;html=1;" parent="1" target="0YZWf_vBpHwigLN9SsZy-50" edge="1" source="0YZWf_vBpHwigLN9SsZy-36">
          <mxGeometry relative="1" as="geometry">
            <mxPoint x="176" y="760" as="sourcePoint" />
            <Array as="points" />
          </mxGeometry>
        </mxCell>
        <mxCell id="0YZWf_vBpHwigLN9SsZy-50" value="Zgłoś błąd, opisz go w rejestrze" style="whiteSpace=wrap;html=1;rounded=0;" parent="1" vertex="1">
          <mxGeometry x="274" y="570" width="120" height="60" as="geometry" />
        </mxCell>
        <mxCell id="bgFscFfWbslKTT8saybT-5" value="" style="edgeStyle=orthogonalEdgeStyle;rounded=0;orthogonalLoop=1;jettySize=auto;html=1;" edge="1" parent="1" source="0YZWf_vBpHwigLN9SsZy-54" target="bgFscFfWbslKTT8saybT-4">
          <mxGeometry relative="1" as="geometry" />
        </mxCell>
        <mxCell id="bgFscFfWbslKTT8saybT-6" value="NIE" style="edgeLabel;html=1;align=center;verticalAlign=middle;resizable=0;points=[];" vertex="1" connectable="0" parent="bgFscFfWbslKTT8saybT-5">
          <mxGeometry x="-0.0204" y="-1" relative="1" as="geometry">
            <mxPoint as="offset" />
          </mxGeometry>
        </mxCell>
        <mxCell id="bgFscFfWbslKTT8saybT-8" value="" style="edgeStyle=orthogonalEdgeStyle;rounded=0;orthogonalLoop=1;jettySize=auto;html=1;" edge="1" parent="1" source="0YZWf_vBpHwigLN9SsZy-54" target="bgFscFfWbslKTT8saybT-7">
          <mxGeometry relative="1" as="geometry" />
        </mxCell>
        <mxCell id="bgFscFfWbslKTT8saybT-9" value="TAK" style="edgeLabel;html=1;align=center;verticalAlign=middle;resizable=0;points=[];" vertex="1" connectable="0" parent="bgFscFfWbslKTT8saybT-8">
          <mxGeometry x="-0.4" y="-1" relative="1" as="geometry">
            <mxPoint as="offset" />
          </mxGeometry>
        </mxCell>
        <mxCell id="0YZWf_vBpHwigLN9SsZy-54" value="Czy po dołączeniu pliku aplikacja wyświetla monity o przetwarzaniu pliku (terminal)" style="rhombus;whiteSpace=wrap;html=1;rounded=0;" parent="1" vertex="1">
          <mxGeometry x="20" y="680" width="156" height="80" as="geometry" />
        </mxCell>
        <mxCell id="0YZWf_vBpHwigLN9SsZy-66" value="PROCEDURA TESTOWA&amp;nbsp;" style="text;html=1;strokeColor=none;fillColor=none;align=center;verticalAlign=middle;whiteSpace=wrap;rounded=0;fontStyle=1;fontSize=15;" parent="1" vertex="1">
          <mxGeometry x="330" y="20" width="194" height="30" as="geometry" />
        </mxCell>
        <mxCell id="0YZWf_vBpHwigLN9SsZy-68" value="" style="edgeStyle=orthogonalEdgeStyle;rounded=0;orthogonalLoop=1;jettySize=auto;html=1;" parent="1" target="0YZWf_vBpHwigLN9SsZy-71" edge="1">
          <mxGeometry relative="1" as="geometry">
            <mxPoint x="518" y="130" as="sourcePoint" />
          </mxGeometry>
        </mxCell>
        <mxCell id="0YZWf_vBpHwigLN9SsZy-82" value="" style="edgeStyle=orthogonalEdgeStyle;rounded=0;orthogonalLoop=1;jettySize=auto;html=1;" parent="1" target="0YZWf_vBpHwigLN9SsZy-81" edge="1">
          <mxGeometry relative="1" as="geometry">
            <mxPoint x="518" y="250" as="sourcePoint" />
          </mxGeometry>
        </mxCell>
        <mxCell id="bgFscFfWbslKTT8saybT-4" value="Zgłoś błąd, opisz go w rejestrze" style="whiteSpace=wrap;html=1;rounded=0;" vertex="1" parent="1">
          <mxGeometry x="274" y="690" width="120" height="60" as="geometry" />
        </mxCell>
        <mxCell id="bgFscFfWbslKTT8saybT-12" value="" style="edgeStyle=orthogonalEdgeStyle;rounded=0;orthogonalLoop=1;jettySize=auto;html=1;" edge="1" parent="1" source="bgFscFfWbslKTT8saybT-7" target="bgFscFfWbslKTT8saybT-11">
          <mxGeometry relative="1" as="geometry" />
        </mxCell>
        <mxCell id="bgFscFfWbslKTT8saybT-13" value="NIE" style="edgeLabel;html=1;align=center;verticalAlign=middle;resizable=0;points=[];" vertex="1" connectable="0" parent="bgFscFfWbslKTT8saybT-12">
          <mxGeometry x="-0.1429" relative="1" as="geometry">
            <mxPoint as="offset" />
          </mxGeometry>
        </mxCell>
        <mxCell id="bgFscFfWbslKTT8saybT-15" value="" style="edgeStyle=orthogonalEdgeStyle;rounded=0;orthogonalLoop=1;jettySize=auto;html=1;" edge="1" parent="1" source="bgFscFfWbslKTT8saybT-7" target="bgFscFfWbslKTT8saybT-14">
          <mxGeometry relative="1" as="geometry" />
        </mxCell>
        <mxCell id="bgFscFfWbslKTT8saybT-18" value="TAK" style="edgeLabel;html=1;align=center;verticalAlign=middle;resizable=0;points=[];" vertex="1" connectable="0" parent="bgFscFfWbslKTT8saybT-15">
          <mxGeometry x="-0.05" y="1" relative="1" as="geometry">
            <mxPoint as="offset" />
          </mxGeometry>
        </mxCell>
        <mxCell id="bgFscFfWbslKTT8saybT-7" value="Czy po przetworzeniu filmu pojawia się odtwarzacz wideo?" style="rhombus;whiteSpace=wrap;html=1;rounded=0;" vertex="1" parent="1">
          <mxGeometry x="20" y="800" width="156" height="80" as="geometry" />
        </mxCell>
        <mxCell id="bgFscFfWbslKTT8saybT-11" value="Zgłoś błąd, opisz go w rejestrze" style="whiteSpace=wrap;html=1;rounded=0;" vertex="1" parent="1">
          <mxGeometry x="274" y="810" width="120" height="60" as="geometry" />
        </mxCell>
        <mxCell id="bgFscFfWbslKTT8saybT-17" value="" style="edgeStyle=orthogonalEdgeStyle;rounded=0;orthogonalLoop=1;jettySize=auto;html=1;" edge="1" parent="1" source="bgFscFfWbslKTT8saybT-14" target="bgFscFfWbslKTT8saybT-16">
          <mxGeometry relative="1" as="geometry" />
        </mxCell>
        <mxCell id="bgFscFfWbslKTT8saybT-19" value="NIE" style="edgeLabel;html=1;align=center;verticalAlign=middle;resizable=0;points=[];" vertex="1" connectable="0" parent="bgFscFfWbslKTT8saybT-17">
          <mxGeometry x="-0.0816" y="2" relative="1" as="geometry">
            <mxPoint as="offset" />
          </mxGeometry>
        </mxCell>
        <mxCell id="bgFscFfWbslKTT8saybT-24" style="edgeStyle=orthogonalEdgeStyle;rounded=0;orthogonalLoop=1;jettySize=auto;html=1;entryX=0.5;entryY=0;entryDx=0;entryDy=0;" edge="1" parent="1" source="bgFscFfWbslKTT8saybT-14" target="bgFscFfWbslKTT8saybT-20">
          <mxGeometry relative="1" as="geometry">
            <mxPoint x="610" y="610" as="targetPoint" />
            <Array as="points">
              <mxPoint x="98" y="1100" />
              <mxPoint x="760" y="1100" />
              <mxPoint x="760" y="180" />
              <mxPoint x="590" y="180" />
            </Array>
          </mxGeometry>
        </mxCell>
        <mxCell id="bgFscFfWbslKTT8saybT-14" value="Czy wideo wyświetla się poprawnie?" style="rhombus;whiteSpace=wrap;html=1;rounded=0;" vertex="1" parent="1">
          <mxGeometry x="20" y="920" width="156" height="80" as="geometry" />
        </mxCell>
        <mxCell id="bgFscFfWbslKTT8saybT-16" value="Zgłoś błąd, opisz go w rejestrze" style="whiteSpace=wrap;html=1;rounded=0;" vertex="1" parent="1">
          <mxGeometry x="274" y="930" width="120" height="60" as="geometry" />
        </mxCell>
        <mxCell id="bgFscFfWbslKTT8saybT-27" style="edgeStyle=orthogonalEdgeStyle;rounded=0;orthogonalLoop=1;jettySize=auto;html=1;exitX=0;exitY=0.5;exitDx=0;exitDy=0;" edge="1" parent="1" source="bgFscFfWbslKTT8saybT-20" target="0YZWf_vBpHwigLN9SsZy-23">
          <mxGeometry relative="1" as="geometry" />
        </mxCell>
        <mxCell id="bgFscFfWbslKTT8saybT-28" value="NIE" style="edgeLabel;html=1;align=center;verticalAlign=middle;resizable=0;points=[];" vertex="1" connectable="0" parent="bgFscFfWbslKTT8saybT-27">
          <mxGeometry x="0.0769" y="-2" relative="1" as="geometry">
            <mxPoint as="offset" />
          </mxGeometry>
        </mxCell>
        <mxCell id="bgFscFfWbslKTT8saybT-30" value="TAK" style="edgeStyle=orthogonalEdgeStyle;rounded=0;orthogonalLoop=1;jettySize=auto;html=1;" edge="1" parent="1" source="bgFscFfWbslKTT8saybT-20" target="bgFscFfWbslKTT8saybT-29">
          <mxGeometry relative="1" as="geometry" />
        </mxCell>
        <mxCell id="bgFscFfWbslKTT8saybT-20" value="Czy na wideo widać kwadraty wykrycia" style="rhombus;whiteSpace=wrap;html=1;rounded=0;" vertex="1" parent="1">
          <mxGeometry x="510" y="200" width="160" height="80" as="geometry" />
        </mxCell>
        <mxCell id="bgFscFfWbslKTT8saybT-31" value="" style="edgeStyle=orthogonalEdgeStyle;rounded=0;orthogonalLoop=1;jettySize=auto;html=1;" edge="1" parent="1" source="bgFscFfWbslKTT8saybT-29" target="0YZWf_vBpHwigLN9SsZy-30">
          <mxGeometry relative="1" as="geometry" />
        </mxCell>
        <mxCell id="bgFscFfWbslKTT8saybT-32" value="NIE" style="edgeLabel;html=1;align=center;verticalAlign=middle;resizable=0;points=[];" vertex="1" connectable="0" parent="bgFscFfWbslKTT8saybT-31">
          <mxGeometry x="-0.3793" y="2" relative="1" as="geometry">
            <mxPoint x="-14" y="-2" as="offset" />
          </mxGeometry>
        </mxCell>
        <mxCell id="bgFscFfWbslKTT8saybT-34" value="TAK" style="edgeStyle=orthogonalEdgeStyle;rounded=0;orthogonalLoop=1;jettySize=auto;html=1;" edge="1" parent="1" source="bgFscFfWbslKTT8saybT-29" target="bgFscFfWbslKTT8saybT-33">
          <mxGeometry relative="1" as="geometry" />
        </mxCell>
        <mxCell id="bgFscFfWbslKTT8saybT-29" value="Czy pojawia się liczba wykrytych aut?" style="rhombus;whiteSpace=wrap;html=1;rounded=0;" vertex="1" parent="1">
          <mxGeometry x="510" y="320" width="160" height="80" as="geometry" />
        </mxCell>
        <mxCell id="bgFscFfWbslKTT8saybT-35" style="edgeStyle=orthogonalEdgeStyle;rounded=0;orthogonalLoop=1;jettySize=auto;html=1;entryX=1;entryY=0.5;entryDx=0;entryDy=0;exitX=0;exitY=0.5;exitDx=0;exitDy=0;" edge="1" parent="1" source="bgFscFfWbslKTT8saybT-33" target="0YZWf_vBpHwigLN9SsZy-33">
          <mxGeometry relative="1" as="geometry">
            <mxPoint x="450" y="525" as="sourcePoint" />
          </mxGeometry>
        </mxCell>
        <mxCell id="bgFscFfWbslKTT8saybT-38" value="NIE" style="edgeLabel;html=1;align=center;verticalAlign=middle;resizable=0;points=[];" vertex="1" connectable="0" parent="bgFscFfWbslKTT8saybT-35">
          <mxGeometry x="0.0345" y="6" relative="1" as="geometry">
            <mxPoint x="10" y="-6" as="offset" />
          </mxGeometry>
        </mxCell>
        <mxCell id="bgFscFfWbslKTT8saybT-40" value="" style="edgeStyle=orthogonalEdgeStyle;rounded=0;orthogonalLoop=1;jettySize=auto;html=1;" edge="1" parent="1" source="bgFscFfWbslKTT8saybT-33" target="bgFscFfWbslKTT8saybT-39">
          <mxGeometry relative="1" as="geometry" />
        </mxCell>
        <mxCell id="bgFscFfWbslKTT8saybT-41" value="TAK" style="edgeLabel;html=1;align=center;verticalAlign=middle;resizable=0;points=[];" vertex="1" connectable="0" parent="bgFscFfWbslKTT8saybT-40">
          <mxGeometry x="-0.175" y="2" relative="1" as="geometry">
            <mxPoint x="-2" as="offset" />
          </mxGeometry>
        </mxCell>
        <mxCell id="bgFscFfWbslKTT8saybT-33" value="Czy stosunek kwadraty wykrycia na nagraniu - liczba jest poprawna&amp;nbsp;" style="rhombus;whiteSpace=wrap;html=1;rounded=0;" vertex="1" parent="1">
          <mxGeometry x="510" y="440" width="160" height="80" as="geometry" />
        </mxCell>
        <mxCell id="bgFscFfWbslKTT8saybT-42" style="edgeStyle=orthogonalEdgeStyle;rounded=0;orthogonalLoop=1;jettySize=auto;html=1;exitX=0;exitY=0.5;exitDx=0;exitDy=0;entryX=1;entryY=0.5;entryDx=0;entryDy=0;" edge="1" parent="1" source="bgFscFfWbslKTT8saybT-39" target="0YZWf_vBpHwigLN9SsZy-50">
          <mxGeometry relative="1" as="geometry" />
        </mxCell>
        <mxCell id="bgFscFfWbslKTT8saybT-44" value="" style="edgeStyle=orthogonalEdgeStyle;rounded=0;orthogonalLoop=1;jettySize=auto;html=1;" edge="1" parent="1" source="bgFscFfWbslKTT8saybT-39" target="bgFscFfWbslKTT8saybT-43">
          <mxGeometry relative="1" as="geometry" />
        </mxCell>
        <mxCell id="bgFscFfWbslKTT8saybT-39" value="Czy po kliknięciu &quot;wgraj&quot; bez nowego pliku, aplikacja resetuje się do stanu początkowego?" style="rhombus;whiteSpace=wrap;html=1;rounded=0;" vertex="1" parent="1">
          <mxGeometry x="510" y="560" width="160" height="80" as="geometry" />
        </mxCell>
        <mxCell id="bgFscFfWbslKTT8saybT-43" value="KONIEC TESTÓW" style="whiteSpace=wrap;html=1;rounded=0;" vertex="1" parent="1">
          <mxGeometry x="530" y="690" width="120" height="60" as="geometry" />
        </mxCell>
      </root>
    </mxGraphModel>
  </diagram>
</mxfile>
